<svg xmlns="http://www.w3.org/2000/svg" xmlns:xlink="http://www.w3.org/1999/xlink" width="500" zoomAndPan="magnify" viewBox="0 0 375 374.999991" height="500" preserveAspectRatio="xMidYMid meet" version="1.0"><defs><clipPath id="56d5c86c0d"><path d="M 11.316406 141.78125 L 102.78125 141.78125 L 102.78125 232.976562 L 11.316406 232.976562 Z M 11.316406 141.78125 " clip-rule="nonzero"/></clipPath></defs><path fill="#ffffff" d="M 97.917969 184.652344 C 97.917969 207.410156 79.417969 225.859375 56.59375 225.859375 C 33.769531 225.859375 15.265625 207.410156 15.265625 184.652344 C 15.265625 161.894531 33.769531 143.449219 56.59375 143.449219 C 79.417969 143.449219 97.917969 161.894531 97.917969 184.652344 Z M 97.917969 184.652344 " fill-opacity="1" fill-rule="nonzero"/><g clip-path="url(#56d5c86c0d)"><path fill="#0086ff" d="M 57.445312 141.78125 C 31.871094 141.570312 11.101562 162.277344 11.316406 187.773438 C 11.53125 212.535156 31.820312 232.765625 56.644531 232.972656 C 82.214844 233.191406 102.992188 212.472656 102.773438 186.976562 C 102.566406 162.226562 82.277344 141.996094 57.445312 141.78125 Z M 43.769531 164.472656 C 46.699219 168.183594 48.449219 172.871094 48.449219 177.964844 C 48.449219 182.371094 47.140625 186.476562 44.882812 189.902344 L 29.03125 189.902344 Z M 92.109375 195.535156 C 92.109375 195.746094 91.996094 195.929688 91.796875 196.011719 C 90.722656 196.46875 87.179688 198.109375 85.699219 200.15625 C 81.894531 205.4375 78.992188 213.734375 72.5 213.734375 L 45.402344 213.734375 C 35.804688 213.734375 27.78125 206.144531 27.789062 196.027344 C 27.789062 195.777344 28 195.574219 28.253906 195.574219 L 41.09375 195.574219 C 41.539062 195.574219 41.886719 195.929688 41.886719 196.363281 L 41.886719 198.832031 C 41.886719 200.148438 42.957031 201.210938 44.273438 201.210938 L 54.015625 201.210938 L 54.015625 195.558594 L 47.359375 195.558594 C 51.1875 190.722656 53.464844 184.621094 53.464844 177.980469 C 53.464844 170.570312 50.617188 163.8125 45.949219 158.757812 C 48.769531 159.085938 51.46875 159.648438 54.015625 160.394531 L 54.015625 158.820312 C 54.015625 157.1875 55.339844 155.863281 56.980469 155.863281 C 58.617188 155.863281 59.945312 157.1875 59.945312 158.820312 L 59.945312 162.613281 C 69.039062 166.84375 74.992188 173.867188 74.992188 181.808594 C 74.992188 186.46875 72.949219 190.808594 69.417969 194.457031 C 68.742188 195.15625 67.804688 195.550781 66.820312 195.550781 L 59.945312 195.550781 L 59.945312 201.195312 L 68.574219 201.195312 C 70.433594 201.195312 73.769531 197.675781 75.355469 195.558594 C 75.355469 195.558594 75.425781 195.449219 75.609375 195.398438 C 75.792969 195.34375 91.453125 191.757812 91.453125 191.757812 C 91.78125 191.667969 92.109375 191.917969 92.109375 192.25 Z M 92.109375 195.535156 " fill-opacity="1" fill-rule="nonzero"/></g><path fill="#ffffff" d="M 139.925781 207.167969 C 136.308594 207.167969 132.984375 206.320312 129.957031 204.625 C 126.929688 202.933594 124.53125 200.597656 122.757812 197.613281 C 120.988281 194.59375 120.101562 191.191406 120.101562 187.398438 C 120.101562 183.644531 120.988281 180.277344 122.757812 177.292969 C 124.53125 174.273438 126.929688 171.917969 129.957031 170.226562 C 132.984375 168.53125 136.308594 167.6875 139.925781 167.6875 C 143.582031 167.6875 146.90625 168.53125 149.894531 170.226562 C 152.921875 171.917969 155.304688 174.273438 157.039062 177.292969 C 158.8125 180.277344 159.699219 183.644531 159.699219 187.398438 C 159.699219 191.191406 158.8125 194.59375 157.039062 197.613281 C 155.304688 200.597656 152.921875 202.933594 149.894531 204.625 C 146.867188 206.320312 143.542969 207.167969 139.925781 207.167969 Z M 139.925781 200.265625 C 142.253906 200.265625 144.300781 199.75 146.074219 198.71875 C 147.847656 197.652344 149.230469 196.140625 150.226562 194.191406 C 151.222656 192.238281 151.722656 189.976562 151.722656 187.398438 C 151.722656 184.820312 151.222656 182.578125 150.226562 180.664062 C 149.230469 178.710938 147.847656 177.21875 146.074219 176.1875 C 144.300781 175.160156 142.253906 174.644531 139.925781 174.644531 C 137.601562 174.644531 135.535156 175.160156 133.722656 176.1875 C 131.953125 177.21875 130.566406 178.710938 129.570312 180.664062 C 128.574219 182.578125 128.074219 184.820312 128.074219 187.398438 C 128.074219 189.976562 128.574219 192.238281 129.570312 194.191406 C 130.566406 196.140625 131.953125 197.652344 133.722656 198.71875 C 135.535156 199.75 137.601562 200.265625 139.925781 200.265625 Z M 139.925781 200.265625 " fill-opacity="1" fill-rule="nonzero"/><path fill="#ffffff" d="M 171.003906 180.605469 C 172 179.207031 173.367188 178.046875 175.101562 177.128906 C 176.875 176.171875 178.886719 175.691406 181.136719 175.691406 C 183.757812 175.691406 186.121094 176.335938 188.226562 177.625 C 190.367188 178.914062 192.046875 180.753906 193.265625 183.148438 C 194.519531 185.503906 195.148438 188.246094 195.148438 191.375 C 195.148438 194.503906 194.519531 197.28125 193.265625 199.710938 C 192.046875 202.105469 190.367188 203.964844 188.226562 205.289062 C 186.121094 206.613281 183.757812 207.277344 181.136719 207.277344 C 178.886719 207.277344 176.890625 206.816406 175.15625 205.898438 C 173.457031 204.976562 172.074219 203.816406 171.003906 202.417969 L 171.003906 221.359375 L 163.25 221.359375 L 163.25 176.1875 L 171.003906 176.1875 Z M 187.230469 191.375 C 187.230469 189.535156 186.84375 187.949219 186.066406 186.625 C 185.328125 185.261719 184.332031 184.234375 183.078125 183.535156 C 181.859375 182.835938 180.527344 182.484375 179.089844 182.484375 C 177.6875 182.484375 176.355469 182.851562 175.101562 183.589844 C 173.882812 184.289062 172.886719 185.320312 172.109375 186.679688 C 171.371094 188.042969 171.003906 189.644531 171.003906 191.484375 C 171.003906 193.324219 171.371094 194.925781 172.109375 196.289062 C 172.886719 197.652344 173.882812 198.699219 175.101562 199.4375 C 176.355469 200.136719 177.6875 200.484375 179.089844 200.484375 C 180.527344 200.484375 181.859375 200.117188 183.078125 199.382812 C 184.332031 198.644531 185.328125 197.597656 186.066406 196.234375 C 186.84375 194.871094 187.230469 193.253906 187.230469 191.375 Z M 187.230469 191.375 " fill-opacity="1" fill-rule="nonzero"/><path fill="#ffffff" d="M 228.75 190.824219 C 228.75 191.925781 228.675781 192.921875 228.527344 193.804688 L 206.097656 193.804688 C 206.285156 196.011719 207.058594 197.742188 208.425781 198.996094 C 209.792969 200.246094 211.472656 200.871094 213.464844 200.871094 C 216.34375 200.871094 218.394531 199.640625 219.613281 197.171875 L 227.972656 197.171875 C 227.089844 200.117188 225.390625 202.546875 222.878906 204.460938 C 220.367188 206.339844 217.285156 207.277344 213.632812 207.277344 C 210.675781 207.277344 208.019531 206.632812 205.65625 205.34375 C 203.332031 204.019531 201.503906 202.160156 200.171875 199.769531 C 198.882812 197.375 198.234375 194.613281 198.234375 191.484375 C 198.234375 188.320312 198.882812 185.539062 200.171875 183.148438 C 201.464844 180.753906 203.273438 178.914062 205.601562 177.625 C 207.925781 176.335938 210.605469 175.691406 213.632812 175.691406 C 216.546875 175.691406 219.152344 176.320312 221.441406 177.570312 C 223.765625 178.820312 225.554688 180.605469 226.8125 182.925781 C 228.105469 185.207031 228.75 187.839844 228.75 190.824219 Z M 220.71875 188.613281 C 220.683594 186.625 219.960938 185.042969 218.558594 183.863281 C 217.15625 182.648438 215.441406 182.042969 213.410156 182.042969 C 211.488281 182.042969 209.867188 182.632812 208.535156 183.808594 C 207.242188 184.949219 206.449219 186.550781 206.15625 188.613281 Z M 220.71875 188.613281 " fill-opacity="1" fill-rule="nonzero"/><path fill="#ffffff" d="M 249.75 175.746094 C 253.402344 175.746094 256.359375 176.90625 258.609375 179.226562 C 260.863281 181.507812 261.988281 184.710938 261.988281 188.835938 L 261.988281 206.78125 L 254.234375 206.78125 L 254.234375 189.882812 C 254.234375 187.453125 253.625 185.59375 252.40625 184.304688 C 251.1875 182.980469 249.527344 182.320312 247.421875 182.320312 C 245.28125 182.320312 243.582031 182.980469 242.328125 184.304688 C 241.109375 185.59375 240.5 187.453125 240.5 189.882812 L 240.5 206.78125 L 232.746094 206.78125 L 232.746094 176.1875 L 240.5 176.1875 L 240.5 180 C 241.535156 178.675781 242.84375 177.644531 244.433594 176.90625 C 246.058594 176.132812 247.828125 175.746094 249.75 175.746094 Z M 249.75 175.746094 " fill-opacity="1" fill-rule="nonzero"/><path fill="#ffffff" d="M 279.9375 207.167969 C 277.242188 207.167969 274.804688 206.707031 272.628906 205.785156 C 270.488281 204.867188 268.789062 203.539062 267.535156 201.8125 C 266.277344 200.082031 265.632812 198.039062 265.59375 195.679688 L 273.902344 195.679688 C 274.011719 197.265625 274.566406 198.515625 275.5625 199.4375 C 276.597656 200.355469 278 200.816406 279.773438 200.816406 C 281.582031 200.816406 283.003906 200.394531 284.035156 199.546875 C 285.070312 198.664062 285.585938 197.523438 285.585938 196.125 C 285.585938 194.980469 285.238281 194.042969 284.535156 193.308594 C 283.832031 192.570312 282.949219 192 281.875 191.59375 C 280.84375 191.152344 279.402344 190.675781 277.558594 190.160156 C 275.046875 189.421875 272.996094 188.707031 271.410156 188.007812 C 269.859375 187.269531 268.511719 186.183594 267.367188 184.75 C 266.257812 183.277344 265.707031 181.324219 265.707031 178.894531 C 265.707031 176.613281 266.277344 174.625 267.421875 172.933594 C 268.566406 171.238281 270.171875 169.949219 272.242188 169.066406 C 274.308594 168.144531 276.671875 167.6875 279.328125 167.6875 C 283.316406 167.6875 286.546875 168.660156 289.019531 170.613281 C 291.53125 172.527344 292.914062 175.214844 293.175781 178.675781 L 284.644531 178.675781 C 284.570312 177.347656 284 176.261719 282.929688 175.417969 C 281.894531 174.53125 280.511719 174.089844 278.777344 174.089844 C 277.261719 174.089844 276.042969 174.476562 275.121094 175.25 C 274.234375 176.023438 273.792969 177.144531 273.792969 178.617188 C 273.792969 179.648438 274.125 180.515625 274.789062 181.214844 C 275.488281 181.875 276.339844 182.429688 277.335938 182.871094 C 278.371094 183.277344 279.808594 183.753906 281.65625 184.304688 C 284.164062 185.042969 286.214844 185.777344 287.800781 186.515625 C 289.390625 187.25 290.757812 188.355469 291.902344 189.828125 C 293.046875 191.300781 293.617188 193.234375 293.617188 195.625 C 293.617188 197.6875 293.082031 199.601562 292.011719 201.367188 C 290.941406 203.136719 289.371094 204.554688 287.304688 205.621094 C 285.238281 206.652344 282.78125 207.167969 279.9375 207.167969 Z M 279.9375 207.167969 " fill-opacity="1" fill-rule="nonzero"/><path fill="#ffffff" d="M 326.644531 190.824219 C 326.644531 191.925781 326.570312 192.921875 326.421875 193.804688 L 303.996094 193.804688 C 304.179688 196.011719 304.953125 197.742188 306.320312 198.996094 C 307.6875 200.246094 309.367188 200.871094 311.359375 200.871094 C 314.238281 200.871094 316.289062 199.640625 317.507812 197.171875 L 325.871094 197.171875 C 324.984375 200.117188 323.285156 202.546875 320.773438 204.460938 C 318.265625 206.339844 315.179688 207.277344 311.527344 207.277344 C 308.570312 207.277344 305.914062 206.632812 303.550781 205.34375 C 301.226562 204.019531 299.398438 202.160156 298.070312 199.769531 C 296.777344 197.375 296.128906 194.613281 296.128906 191.484375 C 296.128906 188.320312 296.777344 185.539062 298.070312 183.148438 C 299.359375 180.753906 301.167969 178.914062 303.496094 177.625 C 305.820312 176.335938 308.5 175.691406 311.527344 175.691406 C 314.441406 175.691406 317.046875 176.320312 319.335938 177.570312 C 321.660156 178.820312 323.453125 180.605469 324.707031 182.925781 C 326 185.207031 326.644531 187.839844 326.644531 190.824219 Z M 318.613281 188.613281 C 318.578125 186.625 317.859375 185.042969 316.453125 183.863281 C 315.050781 182.648438 313.335938 182.042969 311.304688 182.042969 C 309.382812 182.042969 307.761719 182.632812 306.429688 183.808594 C 305.136719 184.949219 304.34375 186.550781 304.050781 188.613281 Z M 318.613281 188.613281 " fill-opacity="1" fill-rule="nonzero"/><path fill="#ffffff" d="M 329.199219 191.375 C 329.199219 188.28125 329.8125 185.539062 331.03125 183.148438 C 332.285156 180.753906 333.964844 178.914062 336.066406 177.625 C 338.210938 176.335938 340.59375 175.691406 343.210938 175.691406 C 345.503906 175.691406 347.496094 176.152344 349.195312 177.074219 C 350.929688 177.992188 352.3125 179.152344 353.347656 180.550781 L 353.347656 176.1875 L 361.15625 176.1875 L 361.15625 206.78125 L 353.347656 206.78125 L 353.347656 202.308594 C 352.347656 203.742188 350.96875 204.941406 349.195312 205.898438 C 347.460938 206.816406 345.445312 207.277344 343.15625 207.277344 C 340.574219 207.277344 338.210938 206.613281 336.066406 205.289062 C 333.964844 203.964844 332.285156 202.105469 331.03125 199.710938 C 329.8125 197.28125 329.199219 194.503906 329.199219 191.375 Z M 353.347656 191.484375 C 353.347656 189.609375 352.980469 188.007812 352.238281 186.679688 C 351.5 185.320312 350.503906 184.289062 349.25 183.589844 C 347.996094 182.851562 346.644531 182.484375 345.207031 182.484375 C 343.769531 182.484375 342.4375 182.835938 341.21875 183.535156 C 340 184.234375 339.003906 185.261719 338.230469 186.625 C 337.492188 187.949219 337.121094 189.535156 337.121094 191.375 C 337.121094 193.214844 337.492188 194.835938 338.230469 196.234375 C 339.003906 197.597656 340 198.644531 341.21875 199.382812 C 342.472656 200.117188 343.804688 200.484375 345.207031 200.484375 C 346.644531 200.484375 347.996094 200.136719 349.25 199.4375 C 350.503906 198.699219 351.5 197.667969 352.238281 196.34375 C 352.980469 194.980469 353.347656 193.363281 353.347656 191.484375 Z M 353.347656 191.484375 " fill-opacity="1" fill-rule="nonzero"/></svg>