<svg xmlns="http://www.w3.org/2000/svg" xmlns:xlink="http://www.w3.org/1999/xlink" width="500" zoomAndPan="magnify" viewBox="0 0 375 374.999991" height="500" preserveAspectRatio="xMidYMid meet" version="1.0"><defs><g/></defs><g fill="#ffffff" fill-opacity="1"><g transform="translate(28.60082, 239.815894)"><g><path d="M 12.9375 0 L 12.9375 -99.578125 L 52.921875 -99.578125 C 63.222656 -99.578125 70.992188 -97.203125 76.234375 -92.453125 C 81.484375 -87.710938 84.109375 -81.164062 84.109375 -72.8125 C 84.109375 -66.769531 82.578125 -61.816406 79.515625 -57.953125 C 76.453125 -54.097656 71.878906 -51.148438 65.796875 -49.109375 L 65.796875 -47.671875 C 68.921875 -46.304688 71.445312 -44.285156 73.375 -41.609375 C 75.3125 -38.929688 77.144531 -34.957031 78.875 -29.6875 L 88.8125 0 L 68.578125 0 L 58.84375 -29.765625 C 57.84375 -32.765625 56.71875 -35.09375 55.46875 -36.75 C 54.21875 -38.40625 52.628906 -39.609375 50.703125 -40.359375 C 48.773438 -41.109375 46.269531 -41.484375 43.1875 -41.484375 L 32.625 -41.484375 L 32.625 0 Z M 50.53125 -57.078125 C 60.070312 -57.078125 64.84375 -61.523438 64.84375 -70.421875 C 64.84375 -79.460938 60.070312 -83.984375 50.53125 -83.984375 L 32.625 -83.984375 L 32.625 -57.078125 Z M 50.53125 -57.078125 "/></g></g></g><g fill="#ffffff" fill-opacity="1"><g transform="translate(121.160383, 239.815894)"><g><path d="M 47.546875 0 L 25.546875 0 L 2.71875 -99.578125 L 22.34375 -99.578125 L 37.390625 -29.5625 L 39.09375 -29.5625 L 56.9375 -99.578125 L 73.765625 -99.578125 L 91.9375 -29.5625 L 93.640625 -29.5625 L 108.765625 -99.578125 L 127.703125 -99.578125 L 104.953125 0 L 82.890625 0 L 65.453125 -64.21875 L 64.015625 -64.21875 Z M 47.546875 0 "/></g></g></g><g fill="#ffffff" fill-opacity="1"><g transform="translate(249.272535, 239.815894)"><g><path d="M 95.5625 0 L 74.84375 0 L 67.359375 -22.953125 L 29.21875 -22.953125 L 21.71875 0 L 1.5 0 L 35.890625 -99.578125 L 61.15625 -99.578125 Z M 47.328125 -78.796875 L 34.53125 -39.5 L 61.90625 -39.5 L 49.03125 -78.796875 Z M 47.328125 -78.796875 "/></g></g></g></svg>